<svg id="Group_310641" data-name="Group 310641" xmlns="http://www.w3.org/2000/svg" width="400" height="240" viewBox="0 0 400 240">
  <g id="Group_310640" data-name="Group 310640" transform="translate(-449.826 -1711.763)">
    <g id="Group_310525" data-name="Group 310525" transform="translate(629.346 1817.296)">
      <path id="Union_19" data-name="Union 19" d="M19.809,15.632a1.684,1.684,0,0,1-.14-2.377L22.9,9.62H1.684a1.684,1.684,0,1,1,0-3.367H22.576L19.64,2.768A1.684,1.684,0,0,1,22.215.6l5.268,6.254.008.01,0,0,.01.013,0,0,.012.016h0l.011.014,0,0,.01.013,0,0a1.676,1.676,0,0,1,.331.925,1.7,1.7,0,0,1,.078.508,1.677,1.677,0,0,1-.425,1.117l-5.343,6.011a1.684,1.684,0,0,1-2.377.139Z" transform="translate(13.978 16.446)" fill="#cacaca"/>
      <path id="Union_20" data-name="Union 20" d="M19.809,15.632a1.684,1.684,0,0,1-.14-2.377L22.9,9.62H1.684a1.684,1.684,0,1,1,0-3.367H22.576L19.64,2.768A1.684,1.684,0,0,1,22.215.6l5.268,6.254.008.01,0,0,.01.013,0,0,.012.016h0l.011.014,0,0,.01.013,0,0a1.676,1.676,0,0,1,.331.925,1.7,1.7,0,0,1,.078.508,1.677,1.677,0,0,1-.425,1.117l-5.343,6.011a1.684,1.684,0,0,1-2.377.139Z" transform="translate(27.955 16.057) rotate(180)" fill="#cacaca"/>
    </g>
    <g id="Group_310524" data-name="Group 310524" transform="translate(473.826 1743.864)">
      <g id="Group_310520" data-name="Group 310520" transform="matrix(0.978, 0.208, -0.208, 0.978, 94.41, 97.369)">
        <path id="Path_101390" data-name="Path 101390" d="M6.651,0A6.65,6.65,0,0,0,0,6.65V63.926a6.651,6.651,0,0,0,6.651,6.651H50.987a6.651,6.651,0,0,0,6.651-6.65V16.848A5.583,5.583,0,0,0,56,12.924L44.647,1.618A5.476,5.476,0,0,0,40.745,0Z" transform="translate(5.335 1.006) rotate(-1)" fill="#fee" style="isolation: isolate"/>
        <path id="Path_4" data-name="Path 4" d="M0,61.336V6.465A6.458,6.458,0,0,1,6.449,0H38.154a7.087,7.087,0,0,1,5,2.065l9.492,9.444a7.121,7.121,0,0,1,2.1,5.048V61.336A6.458,6.458,0,0,1,48.292,67.8H6.449A6.458,6.458,0,0,1,0,61.336Z" transform="translate(1.46 7.579)" fill="#fff"/>
        <path id="Path_4_-_Outline" data-name="Path 4 - Outline" d="M7.712,70.326h0A7.721,7.721,0,0,1,0,62.6V7.728A7.721,7.721,0,0,1,7.71,0H39.418a8.35,8.35,0,0,1,5.888,2.433L54.8,11.876a8.384,8.384,0,0,1,2.468,5.944V62.6a7.721,7.721,0,0,1-7.708,7.727Zm31.7-67.8H7.712a5.2,5.2,0,0,0-5.186,5.2V62.6a5.2,5.2,0,0,0,5.188,5.2H49.555a5.2,5.2,0,0,0,5.184-5.2V17.82a5.858,5.858,0,0,0-1.724-4.153L43.524,4.223A5.787,5.787,0,0,0,39.417,2.526Z" transform="translate(0 6.214)" fill="#cacaca"/>
        <g id="Group_155657" data-name="Group 155657" transform="translate(11.565 20.211)">
          <path id="Path_101549" data-name="Path 101549" d="M1.852,0H26.59a1.852,1.852,0,0,1,1.852,1.852V3A1.852,1.852,0,0,1,26.59,4.856H1.852A1.852,1.852,0,0,1,0,3V1.852A1.852,1.852,0,0,1,1.852,0Z" transform="translate(1.432 1.895)" fill="#e1f5d0"/>
          <g id="Path_101548" data-name="Path 101548" transform="translate(0 0)">
            <path id="Path_596798" data-name="Path 596798" d="M1.852,0H25.666a1.852,1.852,0,0,1,1.852,1.852V17.11a1.852,1.852,0,0,1-1.852,1.852H1.852A1.852,1.852,0,0,1,0,17.11V1.852A1.852,1.852,0,0,1,1.852,0Z" transform="translate(1.895 1.895)" fill="none"/>
            <path id="Path_596799" data-name="Path 596799" d="M3.747,1.895A1.852,1.852,0,0,0,1.895,3.747V19a1.852,1.852,0,0,0,1.852,1.852H27.561A1.852,1.852,0,0,0,29.413,19V3.747a1.852,1.852,0,0,0-1.852-1.852H3.747M3.747,0H27.561a3.751,3.751,0,0,1,3.747,3.747V19a3.751,3.751,0,0,1-3.747,3.747H3.747A3.751,3.751,0,0,1,0,19V3.747A3.751,3.751,0,0,1,3.747,0Z" transform="translate(0 0)" fill="#44b756"/>
          </g>
          <path id="Line_6839" data-name="Line 6839" d="M28.212,1.895H0V0H28.212Z" transform="translate(1.548 5.688)" fill="#3eb851"/>
          <path id="Line_6846" data-name="Line 6846" d="M28.212,1.895H0V0H28.212Z" transform="translate(1.548 9.388)" fill="#3eb851"/>
          <path id="Path_101226" data-name="Path 101226" d="M1.895,20.211H0V0H1.895Z" transform="translate(5.457 1.458)" fill="#3eb851"/>
          <path id="Path_101227" data-name="Path 101227" d="M1.895,20.211H0V0H1.895Z" transform="translate(19.331 1.458)" fill="#3eb851"/>
          <path id="Line_6840" data-name="Line 6840" d="M28.212,1.895H0V0H28.212Z" transform="translate(1.548 13.088)" fill="#3eb851"/>
          <path id="Line_6841" data-name="Line 6841" d="M28.212,1.895H0V0H28.212Z" transform="translate(1.548 16.787)" fill="#3eb851"/>
        </g>
      </g>
      <g id="Group_310519" data-name="Group 310519" transform="translate(0 61.643) rotate(-7)">
        <path id="Path_101390-2" data-name="Path 101390" d="M6.651,0A6.65,6.65,0,0,0,0,6.65V63.926a6.651,6.651,0,0,0,6.651,6.651H50.987a6.651,6.651,0,0,0,6.651-6.65V16.848A5.583,5.583,0,0,0,56,12.924L44.647,1.618A5.476,5.476,0,0,0,40.745,0Z" transform="translate(5.335 1.006) rotate(-1)" fill="#fee" style="isolation: isolate"/>
        <path id="Path_4-2" data-name="Path 4" d="M0,61.336V6.465A6.458,6.458,0,0,1,6.449,0H38.154a7.087,7.087,0,0,1,5,2.065l9.492,9.444a7.121,7.121,0,0,1,2.1,5.048V61.336A6.458,6.458,0,0,1,48.292,67.8H6.449A6.458,6.458,0,0,1,0,61.336Z" transform="translate(1.46 7.579)" fill="#fff"/>
        <path id="Path_4_-_Outline-2" data-name="Path 4 - Outline" d="M7.712,70.327h0A7.721,7.721,0,0,1,0,62.6V7.728A7.721,7.721,0,0,1,7.71,0H39.418a8.35,8.35,0,0,1,5.888,2.433L54.8,11.876a8.384,8.384,0,0,1,2.468,5.944V62.6a7.721,7.721,0,0,1-7.708,7.727Zm31.7-67.8H7.712a5.2,5.2,0,0,0-5.186,5.2V62.6a5.2,5.2,0,0,0,5.188,5.2H49.555a5.2,5.2,0,0,0,5.184-5.2V17.82a5.858,5.858,0,0,0-1.724-4.153L43.524,4.223A5.787,5.787,0,0,0,39.417,2.526Z" transform="translate(0 6.214)" fill="#cacaca"/>
        <g id="Group_160018" data-name="Group 160018" transform="translate(5.335 21.411) rotate(-15.009)">
          <path id="Path_101551" data-name="Path 101551" d="M.695,0A.7.7,0,0,0,0,.65V5.735a.632.632,0,0,0,.195.454.58.58,0,0,0,.477.172h.781a.632.632,0,0,0,.473-.172A.751.751,0,0,0,2.1,5.715v-3.7H7.53V15.148H5.064a.776.776,0,0,0-.714.734v.736a.735.735,0,0,0,.736.65h7.162a.7.7,0,0,0,.695-.695v-.841a.653.653,0,0,0-.236-.442.642.642,0,0,0-.479-.143H9.651V2.165h5.495V5.822A.625.625,0,0,0,15.3,6.3a.6.6,0,0,0,.453.172h.909A.558.558,0,0,0,17.1,6.3a.632.632,0,0,0,.172-.453V.65A.671.671,0,0,0,16.619,0Z" transform="matrix(0.966, 0.259, -0.259, 0.966, 4.469, 0)" fill="#0d66d0" fill-rule="evenodd"/>
          <rect id="Rectangle_148673" data-name="Rectangle 148673" width="17.269" height="2.159" rx="0.47" transform="matrix(0.966, 0.259, -0.259, 0.966, 18.356, 14.895)" fill="#0d66d0"/>
          <rect id="Rectangle_148674" data-name="Rectangle 148674" width="17.269" height="2.159" rx="0.47" transform="matrix(0.966, 0.259, -0.259, 0.966, 17.239, 19.065)" fill="#0d66d0"/>
          <rect id="Rectangle_148675" data-name="Rectangle 148675" width="30.22" height="2.159" rx="0.47" transform="matrix(0.966, 0.259, -0.259, 0.966, 2.911, 21.862)" fill="#0d66d0"/>
        </g>
      </g>
      <g id="Group_310522" data-name="Group 310522" transform="matrix(0.995, -0.105, 0.105, 0.995, 68.621, 6.71)">
        <g id="Group_310518" data-name="Group 310518" transform="translate(0 0)">
          <path id="Path_101390-3" data-name="Path 101390" d="M6.651,0A6.65,6.65,0,0,0,0,6.65V63.926a6.651,6.651,0,0,0,6.651,6.651H50.987a6.651,6.651,0,0,0,6.651-6.65V16.848A5.583,5.583,0,0,0,56,12.924L44.647,1.618A5.476,5.476,0,0,0,40.745,0Z" transform="translate(5.335 1.006) rotate(-1)" fill="#fee" style="isolation: isolate"/>
          <path id="Path_4-3" data-name="Path 4" d="M0,61.336V6.465A6.458,6.458,0,0,1,6.449,0H38.154a7.087,7.087,0,0,1,5,2.065l9.492,9.444a7.121,7.121,0,0,1,2.1,5.048V61.336A6.458,6.458,0,0,1,48.292,67.8H6.449A6.458,6.458,0,0,1,0,61.336Z" transform="translate(1.46 7.579)" fill="#fff"/>
          <path id="Path_4_-_Outline-3" data-name="Path 4 - Outline" d="M7.712,70.327h0A7.721,7.721,0,0,1,0,62.6V7.728A7.721,7.721,0,0,1,7.71,0H39.418a8.35,8.35,0,0,1,5.888,2.433L54.8,11.876a8.384,8.384,0,0,1,2.468,5.944V62.6a7.721,7.721,0,0,1-7.708,7.727Zm31.7-67.8H7.712a5.2,5.2,0,0,0-5.186,5.2V62.6a5.2,5.2,0,0,0,5.188,5.2H49.555a5.2,5.2,0,0,0,5.184-5.2V17.82a5.858,5.858,0,0,0-1.724-4.153L43.524,4.223A5.787,5.787,0,0,0,39.417,2.526Z" transform="translate(0 6.214)" fill="#cacaca"/>
          <g id="Group_310531" data-name="Group 310531" transform="translate(11.43 20.211)">
            <rect id="Rectangle_148640" data-name="Rectangle 148640" width="29.684" height="22.737" rx="2" transform="translate(0.947 0.947)" fill="#fef6ef"/>
            <g id="Group_310505" data-name="Group 310505" transform="translate(1.208 4.683)">
              <path id="Union_13" data-name="Union 13" d="M2.672,5.345H2.666A2.672,2.672,0,0,1,2.672,0h.005a2.672,2.672,0,0,1,0,5.345Z" transform="translate(20.666 0)" fill="#f0ab73"/>
              <path id="Union_12" data-name="Union 12" d="M21.092,11.4l-2.2-.012H15.462a.943.943,0,0,1-.184-.018L.942,11.291A.947.947,0,0,1,.292,9.66L9.834.505a1.793,1.793,0,0,1,2.5,0l0,0L17.616,5.7,20.122,3.12c.011-.011.022-.022.034-.032a2.068,2.068,0,0,1,2.823,0l.028.027,6.585,6.659a.948.948,0,0,1-.674,1.614H21.248a.941.941,0,0,1-.151.012Z" transform="translate(0 7.425)" fill="#f0ab73"/>
            </g>
            <path id="Rectangle_148640_-_Outline" data-name="Rectangle 148640 - Outline" d="M2.211,0H29.368a2.213,2.213,0,0,1,2.211,2.211V22.421a2.213,2.213,0,0,1-2.211,2.211H2.211A2.213,2.213,0,0,1,0,22.421V2.211A2.213,2.213,0,0,1,2.211,0ZM29.368,22.737a.316.316,0,0,0,.316-.316V2.211a.316.316,0,0,0-.316-.316H2.211a.316.316,0,0,0-.316.316V22.421a.316.316,0,0,0,.316.316Z" transform="translate(0 0)" fill="#cd8032"/>
          </g>
        </g>
      </g>
    </g>
    <g id="Group_310529" data-name="Group 310529" transform="translate(667.919 1733.763)">
      <path id="Path_102730" data-name="Path 102730" d="M11.461,0A11.46,11.46,0,0,0,0,11.46v98.7a11.461,11.461,0,0,0,11.461,11.461h76.4a11.462,11.462,0,0,0,11.462-11.462V29.034A9.621,9.621,0,0,0,96.5,22.272L76.936,2.787A9.437,9.437,0,0,0,70.215,0Z" transform="translate(20.622 48.451)" fill="#fee" style="isolation: isolate"/>
      <g id="Group_160075" data-name="Group 160075" transform="translate(35.674 33.337)">
        <path id="Path_101552" data-name="Path 101552" d="M0,108.923V11.481A11.468,11.468,0,0,1,11.453,0H67.761a12.585,12.585,0,0,1,8.874,3.667L93.492,20.438A12.647,12.647,0,0,1,97.214,29.4v79.521A11.468,11.468,0,0,1,85.761,120.4H11.453A11.468,11.468,0,0,1,0,108.923Z" transform="translate(1.684 1.684)" fill="#fff"/>
        <path id="Path_101552_-_Outline" data-name="Path 101552 - Outline" d="M85.447,121.771H11.136A13.152,13.152,0,0,1-2,108.6V11.164A13.152,13.152,0,0,1,11.134-2H67.445A14.269,14.269,0,0,1,77.506,2.157L94.363,18.928a14.33,14.33,0,0,1,4.218,10.159v79.52a13.152,13.152,0,0,1-13.134,13.164ZM11.136,1.367a9.785,9.785,0,0,0-9.769,9.8v97.444a9.785,9.785,0,0,0,9.772,9.8h74.3a9.785,9.785,0,0,0,9.772-9.8V29.086a10.963,10.963,0,0,0-3.227-7.772L75.131,4.544a10.9,10.9,0,0,0-7.687-3.177Z" transform="translate(2 2)" fill="#cacaca"/>
      </g>
      <g id="Group_160076" data-name="Group 160076" transform="translate(0 9.683)">
        <line id="Line_6847" data-name="Line 6847" y2="5.879" transform="translate(9.472)" fill="none" stroke="#71d7d0" stroke-linecap="round" stroke-width="3"/>
        <line id="Line_6848" data-name="Line 6848" y2="5.879" transform="translate(9.472 13.065)" fill="none" stroke="#71d7d0" stroke-linecap="round" stroke-width="3"/>
        <line id="Line_6850" data-name="Line 6850" y2="5.879" transform="translate(18.944 9.472) rotate(90)" fill="none" stroke="#71d7d0" stroke-linecap="round" stroke-width="3"/>
        <line id="Line_6849" data-name="Line 6849" y2="5.879" transform="translate(5.879 9.472) rotate(90)" fill="none" stroke="#71d7d0" stroke-linecap="round" stroke-width="3"/>
      </g>
      <g id="Group_160077" data-name="Group 160077" transform="translate(144.612 180.588) rotate(-1)">
        <line id="Line_6847-2" data-name="Line 6847" y2="3.197" transform="translate(6.535 0)" fill="none" stroke="#f0ab73" stroke-linecap="round" stroke-width="3"/>
        <line id="Line_6848-2" data-name="Line 6848" y2="3.197" transform="translate(6.535 9.873)" fill="none" stroke="#f0ab73" stroke-linecap="round" stroke-width="3"/>
        <line id="Line_6850-2" data-name="Line 6850" y2="3.197" transform="translate(13.07 6.535) rotate(90)" fill="none" stroke="#f0ab73" stroke-linecap="round" stroke-width="3"/>
        <line id="Line_6849-2" data-name="Line 6849" y2="3.197" transform="translate(3.197 6.535) rotate(90)" fill="none" stroke="#f0ab73" stroke-linecap="round" stroke-width="3"/>
      </g>
      <g id="Group_160078" data-name="Group 160078" transform="translate(28.779)">
        <line id="Line_6847-3" data-name="Line 6847" y2="2.38" transform="translate(4.864)" fill="none" stroke="#bedf98" stroke-linecap="round" stroke-width="3"/>
        <line id="Line_6848-3" data-name="Line 6848" y2="2.38" transform="translate(4.864 7.347)" fill="none" stroke="#bedf98" stroke-linecap="round" stroke-width="3"/>
        <line id="Line_6850-3" data-name="Line 6850" y2="2.38" transform="translate(9.726 4.864) rotate(90)" fill="none" stroke="#bedf98" stroke-linecap="round" stroke-width="3"/>
        <line id="Line_6849-3" data-name="Line 6849" y2="2.38" transform="translate(2.38 4.864) rotate(90)" fill="none" stroke="#bedf98" stroke-linecap="round" stroke-width="3"/>
      </g>
      <path id="Path_102751" data-name="Path 102751" d="M204.936,248.311c-3.632,5.741-7.207,9.367-9.3,9.367a1.395,1.395,0,0,1-1.409-1.639c.4-2.056,4.536-5.02,10.706-7.727Zm17.461-8.205c-1.561.32-3.173.693-4.808,1.116-1.173.306-2.366.639-3.558.994.634-1.27,1.215-2.53,1.721-3.726.668-1.583,1.3-3.164,1.873-4.714.505.779,1.03,1.538,1.566,2.267a45.453,45.453,0,0,0,3.333,4.032Zm-8.067-27.314a1.5,1.5,0,0,1,1.256-.8c1.375,0,1.675,1.626,1.675,2.989a36.659,36.659,0,0,1-1.8,9.451c-2.309-6-1.987-10.2-1.13-11.644Zm25.848,31.353c-.2,1.022-1.277,1.684-2.752,1.684a5.341,5.341,0,0,1-1.243-.152,20.4,20.4,0,0,1-7.881-3.914,39.8,39.8,0,0,1,5.832-.44,21.434,21.434,0,0,1,3.887.293c1.168.238,2.486.87,2.157,2.532Zm3.914-2.707c-1.721-1.811-5.014-2.735-9.786-2.735a52.62,52.62,0,0,0-7.9.673,38.817,38.817,0,0,1-4.553-5.214A47.632,47.632,0,0,1,219,229.817c1.679-5.191,2.532-9.407,2.532-12.529,0-3.837-1.548-7.939-5.892-7.939A4.387,4.387,0,0,0,212,211.459c-1.852,3.122-1.112,9.552,1.852,16.094-1.03,3-2.153,5.93-3.529,9.175a81.092,81.092,0,0,1-3.99,8.128c-4.433,1.753-13.856,6-14.753,10.69a3.934,3.934,0,0,0,1.29,3.739,5.675,5.675,0,0,0,3.841,1.347c5.676,0,11.334-7.71,15.146-14.347,2.163-.722,4.377-1.378,6.573-1.949,2.412-.628,4.744-1.141,6.944-1.525,6.008,5.145,11.351,5.924,14.029,5.924,3.678,0,5.051-1.563,5.556-2.88a4.352,4.352,0,0,0-.859-4.418Z" transform="translate(-132.66 -143.708)" fill="#fa0f00" fill-rule="evenodd"/>
    </g>
  </g>
  <rect id="Rectangle_248042" data-name="Rectangle 248042" width="400" height="240" opacity="0"/>
</svg>
