<?xml version="1.0" encoding="UTF-8" standalone="no"?>
<svg
   xmlns:dc="http://purl.org/dc/elements/1.1/"
   xmlns:cc="http://creativecommons.org/ns#"
   xmlns:rdf="http://www.w3.org/1999/02/22-rdf-syntax-ns#"
   xmlns:svg="http://www.w3.org/2000/svg"
   xmlns="http://www.w3.org/2000/svg"
   xmlns:xlink="http://www.w3.org/1999/xlink"
   xmlns:sodipodi="http://sodipodi.sourceforge.net/DTD/sodipodi-0.dtd"
   xmlns:inkscape="http://www.inkscape.org/namespaces/inkscape"
   width="1078"
   height="420"
   version="1.1"
   id="svg303"
   sodipodi:docname="banner-about-us.svg"
   inkscape:version="0.92.3 (2405546, 2018-03-11)">
  <metadata
     id="metadata307">
    <rdf:RDF>
      <cc:Work
         rdf:about="">
        <dc:format>image/svg+xml</dc:format>
        <dc:type
           rdf:resource="http://purl.org/dc/dcmitype/StillImage" />
        <dc:title></dc:title>
      </cc:Work>
    </rdf:RDF>
  </metadata>
  <sodipodi:namedview
     pagecolor="#ffffff"
     bordercolor="#666666"
     borderopacity="1"
     objecttolerance="10"
     gridtolerance="10"
     guidetolerance="10"
     inkscape:pageopacity="0"
     inkscape:pageshadow="2"
     inkscape:window-width="1920"
     inkscape:window-height="1001"
     id="namedview305"
     showgrid="false"
     inkscape:zoom="0.33395176"
     inkscape:cx="1460.3785"
     inkscape:cy="109.40947"
     inkscape:window-x="-9"
     inkscape:window-y="-9"
     inkscape:window-maximized="1"
     inkscape:current-layer="svg303" />
  <style
     id="style2"><![CDATA[.G{fill:#282d33}.H{fill:#fff}.I{fill:#fffda6}.J{fill:#ffd05b}]]></style>
  <path
     d="M73.167 101.568H10.935v123.617h82.412V121.754l-20.18-20.186"
     class="I"
     id="path4"
     style="fill:#f0f7ff;fill-opacity:1" />
  <path
     d="M73.157 122.583h21.02l-21.02-21.022z"
     class="J"
     id="path6"
     style="fill:#84dbff;fill-opacity:1" />
  <path
     d="M881 191.31c-11.51-11.512-17.85-26.82-17.85-43.104 0-14.857 5.303-28.938 15.007-40.04l12.44 12.44c-14.024 17.024-13.057 42.436 2.808 58.306s41.28 16.83 58.305 2.804l12.44 12.44c-11.105 9.704-25.183 15.008-40.044 15.005-16.28 0-31.588-6.34-43.103-17.852"
     class="I"
     id="path8"
     style="fill:#f0f7ff;fill-opacity:1" />
  <path
     d="M883.443 102.816a60.42 60.42 0 0 1 36.396-15.401l.001 17.592a43.08 43.08 0 0 0-23.977 10.228l-12.42-12.418"
     class="H"
     id="path10" />
  <path
     d="M960.672 176.272l8.687 8.69c18.75-23.025 17.193-56.746-4.028-77.968-9.54-9.535-21.99-15.424-35.312-16.76v12.27c10.057 1.283 19.453 5.887 26.683 13.12 16.344 16.344 17.897 42.52 3.97 60.65zm8.944 16.49l-16.16-16.168 1.61-1.875c13.775-16.052 12.837-40.354-2.135-55.327-7.013-7.017-15.924-11.103-25.77-11.817l-2.475-.18.003-22.845 2.804.144c15.69.81 30.47 7.39 41.61 18.528 23.892 23.893 24.944 62.303 2.395 87.444l-1.88 2.096"
     class="G"
     id="path12" />
  <path
     d="M944.766 148.26a20.67 20.67 0 0 1-20.667 20.667 20.67 20.67 0 0 1-20.667-20.667 20.67 20.67 0 0 1 20.667-20.667 20.67 20.67 0 0 1 20.667 20.667"
     class="I"
     id="path14"
     style="fill:#f0f7ff;fill-opacity:1" />
  <path
     d="M24.297 132.6H1.417v-5.333h22.88v5.333m31.04 9.946H1v-5.333h54.335v5.333m.001 9.937H1v-5.333h54.335v5.333m.001 9.937H1v-5.333h54.335v5.333m-19.17 9.938H1v-5.333h35.163v5.333m244.013-34.24l-3.62-3.918 3.92-3.62 3.62 3.918zm7.236 7.836l-3.617-3.918 3.917-3.617 3.62 3.917zm7.237 7.837l-3.62-3.918 3.92-3.62 3.617 3.918zm7.236 7.836l-3.62-3.917 3.92-3.62 3.617 3.917zm7.236 7.837l-3.62-3.918 3.92-3.62 3.62 3.918zm7.236 7.836l-3.617-3.918 3.917-3.618 3.62 3.917zm7.236 7.837l-3.617-3.918 3.92-3.62 3.617 3.918zm7.237 7.836l-3.62-3.917 3.92-3.62 3.617 3.917zm7.236 7.837l-3.62-3.918 3.92-3.62 3.62 3.918zm7.236 7.836l-3.617-3.918 3.917-3.618 3.62 3.917zm7.237 7.837l-3.62-3.918 3.92-3.62 3.617 3.92zm7.236 7.836l-3.62-3.918 3.92-3.62 3.62 3.918zm7.236 7.836l-3.62-3.917 3.92-3.62 3.62 3.92zm7.236 7.837l-3.617-3.918 3.917-3.618 3.62 3.917zm7.237 7.837l-3.62-3.918 3.92-3.62 3.617 3.92-3.917 3.62"
     class="G"
     id="path16" />
  <path
     d="M725.103 317.748H664.47V111.912h60.632v205.836"
     class="I"
     id="path18"
     style="fill:#f0f7ff;fill-opacity:1" />
  <path
     d="M726.782 107.52h-64v10.843h64V107.52"
     class="J"
     id="path20"
     style="fill:#84dbff;fill-opacity:1" />
  <path
     d="M595.552 369.576h-22.82v-5.333h22.82v5.333m-27.166 0h-7.604v-5.333h7.604v5.333m7.744 10.007H553.3v-5.333h22.82v5.333m-27.165 0h-7.605v-5.333h7.605v5.333"
     class="G"
     id="path22" />
  <path
     d="M92.775 221.066L78.04 268.72h29.1zm29.1 96.645l-5.933-18.947h-47.08L62.92 317.7H17l51.672-135.113h48.607L167.796 317.7h-45.93m467.442-30.235c-9.38 24.497-33.873 33.873-57.988 33.873-4.977 0-18.372-.384-31.77-6.317-5.74-2.487-19.52-9.184-25.835-25.836-2.488-6.697-3.447-12.247-3.447-26.408v-80.2h42.87v84.397c0 1.34-.2 6.125 1.34 10.336 3.445 10.334 14.163 10.9 17.224 10.9 2.872 0 13.6-.575 17.416-10.717 1.34-3.444 1.34-6.507 1.34-10.528v-84.397h43.06v80.953c0 8.612-1.15 15.884-4.2 23.924m348.475.03c-9.38 24.497-33.875 33.875-57.988 33.875-4.976 0-18.372-.384-31.77-6.317-5.74-2.488-19.52-9.185-25.835-25.837-2.488-6.696-3.445-12.247-3.445-26.408V182.6h42.87v84.397c0 1.34-.2 6.124 1.34 10.334 3.447 10.334 14.163 10.9 17.225 10.9 2.87 0 13.587-.575 17.415-10.716 1.34-3.445 1.34-6.508 1.34-10.528V182.6h43.06v80.952c0 8.614-1.15 15.884-4.2 23.924M678.687 215.9v101.8h-42.68V215.9H601.56v-33.3h111.383v33.3h-34.256m382.113 93.488c-16.745 12.327-38.64 11.96-44.16 11.96-18.952 0-36.984-3.127-52.44-14.72-5.887-4.417-9.384-8.28-13.8-13.984l31.464-20.056c2.76 4.417 4.415 6.44 6.255 7.912 7.36 6.44 20.976 9.2 30 9.2 11.592 0 19.688-3.495 19.688-9.935 0-1.47-.737-2.577-.92-3.13-.92-1.84-2.4-3.496-6.255-4.78-4.6-1.66-12.88-2.76-24.47-5.155-17.847-3.495-27.416-7.9-33.67-13.432-4.048-3.495-11.408-12.142-11.224-26.3 0-3.495.184-11.405 4.784-19.687 13.247-24.288 47.655-23.92 52.62-23.92 6.624 0 30 .368 48.575 13.984 4.05 2.942 6.44 5.52 9.936 9.016l-25.944 21.526c-1.656-2.207-2.576-3.313-3.68-4.232-7.544-7-20.608-9.016-30.36-9.016-.92 0-5.887 0-9.752 1.656-.736.37-5.152 2.392-5.152 6.807 0 2.395 1.472 4.6 3.3 5.888 3.313 2.024 11.04 3.496 14.537 4.05 4.6.734 16.74 2.4 29.623 6.623 8.096 2.576 28.15 9.753 28.15 35.696 0 19.317-11.408 29.807-17.1 34.04"
     class="J"
     id="path24"
     style="fill:#84dbff;fill-opacity:1" />
  <g
     class="G"
     id="g30">
    <path
       d="M683.306 320.227h-49.76v-85.01h5.333v79.676h39.092v-79.676h5.333v85.01"
       id="path26" />
    <path
       d="M637.613 232.71h41.63v-4.566h-41.63zm46.964 5.333H632.28V222.81h52.297v15.233"
       id="path28" />
  </g>
  <path
     d="M643.46 246.46"
     class="H"
     id="path32" />
  <use
     xlink:href="#B"
     class="G"
     id="use34" />
  <path
     d="M655.356 246.46"
     class="H"
     id="path36" />
  <use
     xlink:href="#B"
     x="11.895"
     class="G"
     id="use38" />
  <path
     d="M667.25 246.46"
     class="H"
     id="path40" />
  <use
     xlink:href="#C"
     class="G"
     id="use42" />
  <path
     d="M643.46 257.714"
     class="H"
     id="path44" />
  <use
     xlink:href="#B"
     y="11.255"
     class="G"
     id="use46" />
  <path
     d="M655.356 257.714"
     class="H"
     id="path48" />
  <use
     xlink:href="#B"
     x="11.895"
     y="11.255"
     class="G"
     id="use50" />
  <path
     d="M667.25 257.714"
     class="H"
     id="path52" />
  <use
     xlink:href="#C"
     y="11.255"
     class="G"
     id="use54" />
  <path
     d="M643.46 268.97"
     class="H"
     id="path56" />
  <use
     xlink:href="#B"
     y="22.511"
     class="G"
     id="use58" />
  <path
     d="M655.356 268.97"
     class="H"
     id="path60" />
  <use
     xlink:href="#B"
     x="11.895"
     y="22.511"
     class="G"
     id="use62" />
  <path
     d="M667.25 268.97"
     class="H"
     id="path64" />
  <use
     xlink:href="#C"
     y="22.511"
     class="G"
     id="use66" />
  <path
     d="M643.46 280.224"
     class="H"
     id="path68" />
  <use
     xlink:href="#B"
     y="33.765"
     class="G"
     id="use70" />
  <path
     d="M655.356 280.224"
     class="H"
     id="path72" />
  <use
     xlink:href="#B"
     x="11.895"
     y="33.765"
     class="G"
     id="use74" />
  <path
     d="M667.25 280.224"
     class="H"
     id="path76" />
  <use
     xlink:href="#C"
     y="33.765"
     class="G"
     id="use78" />
  <path
     d="M643.46 291.48"
     class="H"
     id="path80" />
  <use
     xlink:href="#B"
     y="45.02"
     class="G"
     id="use82" />
  <path
     d="M655.356 291.48"
     class="H"
     id="path84" />
  <use
     xlink:href="#B"
     x="11.895"
     y="45.02"
     class="G"
     id="use86" />
  <path
     d="M667.25 291.48"
     class="H"
     id="path88" />
  <use
     xlink:href="#C"
     y="45.02"
     class="G"
     id="use90" />
  <path
     d="M643.46 302.735"
     class="H"
     id="path92" />
  <use
     xlink:href="#B"
     y="56.277"
     class="G"
     id="use94" />
  <path
     d="M655.356 302.735"
     class="H"
     id="path96" />
  <use
     xlink:href="#B"
     x="11.895"
     y="56.277"
     class="G"
     id="use98" />
  <path
     d="M667.25 302.735"
     class="H"
     id="path100" />
  <use
     xlink:href="#C"
     y="56.277"
     class="G"
     id="use102" />
  <path
     d="M697.653 185.336"
     class="H"
     id="path104" />
  <path
     d="M713.73 188.003h-16.077v-5.333h16.077v5.333"
     class="G"
     id="path106" />
  <path
     d="M691.323 185.336h-6.532 6.532"
     class="H"
     id="path108" />
  <path
     d="M691.323 188.003h-6.532v-5.333h6.532v5.333"
     class="G"
     id="path110" />
  <path
     d="M715.24 135.508h-6.532 6.532"
     class="H"
     id="path112" />
  <path
     d="M715.24 138.175h-6.532v-5.333h6.532v5.333"
     class="G"
     id="path114" />
  <path
     d="M699.797 148.055h-6.532 6.532"
     class="H"
     id="path116" />
  <path
     d="M699.797 150.72h-6.532v-5.333h6.532v5.333"
     class="G"
     id="path118" />
  <path
     d="M699.797 160.6h-6.532 6.532"
     class="H"
     id="path120" />
  <path
     d="M699.797 163.267h-6.532v-5.333h6.532v5.333M843.1 321.56H599.5v-5.333h243.6v5.333"
     class="G"
     id="path122" />
  <g
     class="H"
     id="g130">
    <path
       d="M609.397 149.032a8.44 8.44 0 0 1-8.439 8.441c-4.66 0-8.44-3.78-8.44-8.44s3.78-8.44 8.44-8.44a8.44 8.44 0 0 1 8.439 8.441"
       id="path124" />
    <path
       d="M633.113 145.615a13.87 13.87 0 0 1-13.867 13.869 13.87 13.87 0 0 1-13.865-13.869c0-7.658 6.207-13.866 13.865-13.866a13.87 13.87 0 0 1 13.867 13.866"
       id="path126" />
    <path
       d="M644.37 149.032c0 4.663-3.78 8.44-8.44 8.44s-8.44-3.78-8.44-8.44 3.78-8.44 8.44-8.44 8.44 3.78 8.44 8.44"
       id="path128" />
  </g>
  <path
     d="M409.32 33.645c0 11.643-9.44 21.082-21.08 21.082s-21.08-9.438-21.08-21.082 9.44-21.08 21.08-21.08 21.08 9.44 21.08 21.08"
     class="I"
     id="path132"
     style="fill:#f0f7ff;fill-opacity:1" />
  <g
     class="G"
     id="g160">
    <path
       d="M388.24 26.44c-2.613 0-4.74 2.127-4.74 4.74s2.125 4.737 4.74 4.737 4.74-2.125 4.74-4.737-2.127-4.74-4.74-4.74zm0 14.81c-5.553 0-10.072-4.517-10.072-10.07s4.52-10.073 10.072-10.073 10.072 4.52 10.072 10.073-4.52 10.07-10.072 10.07"
       id="path134" />
    <path
       d="M377.98 46.237a16.15 16.15 0 0 0 10.26 3.667 16.16 16.16 0 0 0 10.259-3.667c-.284-2.344-2.285-4.167-4.704-4.167h-11.107a4.75 4.75 0 0 0-4.707 4.167zm10.26 9a21.5 21.5 0 0 1-14.788-5.883l-.84-.8V46.8a10.09 10.09 0 0 1 10.075-10.072h11.107c5.553 0 10.07 4.52 10.07 10.072v1.755l-.837.8c-4.03 3.793-9.28 5.883-14.788 5.883m37.146 51.542h-5.333V89.515h5.333v17.267"
       id="path136" />
    <path
       d="M431.353 100.814h-17.267V95.48h17.267v5.333m41.127 89.557h-5.333v-17.265h5.333v17.265"
       id="path138" />
    <path
       d="M478.447 184.404H461.18v-5.333h17.267v5.333m260.4 130.49h49.725V184.467h-49.725zm55.06 5.333h-60.392V179.133h60.392v141.093"
       id="path140" />
    <path
       d="M746.468 179.087h34.5v-8.52h-34.5zm39.832 5.333h-45.165v-19.188H786.3v19.188"
       id="path142" />
    <use
       xlink:href="#D"
       id="use144" />
    <use
       xlink:href="#D"
       y="17.184"
       id="use146" />
    <use
       xlink:href="#D"
       y="34.37"
       id="use148" />
    <use
       xlink:href="#D"
       y="51.558"
       id="use150" />
    <use
       xlink:href="#D"
       y="68.744"
       id="use152" />
    <use
       xlink:href="#D"
       y="85.93"
       id="use154" />
    <use
       xlink:href="#D"
       y="103.118"
       id="use156" />
    <path
       d="M766.385 165.986h-5.333v-20.05h5.333v20.05M711.9 336.712h-19.236v-5.333H711.9v5.333m66.43.002h-60.56v-5.333h60.56v5.333m-41.502 12.064h-40.773v-5.333h40.773v5.333m16.888-.002h-9.892v-5.333h9.892v5.333m-66.536-12.064h-7.56v-5.333h7.56v5.333"
       id="path158" />
  </g>
  <path
     d="M831.642 288.39c0 8.323-6.748 15.072-15.07 15.072s-15.07-6.75-15.07-15.072v-58.76a15.07 15.07 0 0 1 15.069-15.068c8.323 0 15.07 6.747 15.07 15.068v58.76"
     class="I"
     id="path162"
     style="fill:#f0f7ff;fill-opacity:1" />
  <g
     class="G"
     id="g180">
    <path
       d="M819.238 317.842h-5.333v-97.378h5.333v97.378"
       id="path164" />
    <use
       xlink:href="#E"
       id="use166" />
    <path
       d="M814.686 294.703l-9.104-9.103 3.772-3.77 9.103 9.102-3.77 3.772"
       id="path168" />
    <use
       xlink:href="#E"
       y="-17.37"
       id="use170" />
    <path
       d="M814.686 277.33l-9.103-9.102 3.77-3.772 9.104 9.102-3.77 3.772m3.77-17.374l-3.77-3.772 9.103-9.098 3.77 3.772-9.103 9.098"
       id="path172" />
    <path
       d="M814.686 259.96l-9.104-9.1 3.772-3.77 9.103 9.1-3.77 3.772"
       id="path174" />
    <use
       xlink:href="#E"
       y="-52.115"
       id="use176" />
    <path
       d="M814.686 242.587l-9.103-9.1 3.77-3.772 9.104 9.1-3.77 3.772"
       id="path178" />
  </g>
  <g
     class="H"
     id="g186">
    <path
       d="M744.432 283.232c0 11.593-9.397 20.99-20.99 20.99s-20.99-9.397-20.99-20.99 9.396-20.988 20.99-20.988 20.99 9.395 20.99 20.988"
       id="path182" />
    <path
       d="M721.995 274.964v42.09-42.09"
       id="path184" />
  </g>
  <path
     d="M724.66 317.055h-5.333v-42.09h5.333v42.09"
     class="G"
     id="path188" />
  <path
     d="M721.995 296.577l9.1-9.1-9.1 9.1"
     class="H"
     id="path190" />
  <path
     d="M723.88 298.463l-3.772-3.772 9.1-9.1 3.77 3.772-9.1 9.1"
     class="G"
     id="path192" />
  <path
     d="M721.995 292.028l-9.105-9.1 9.105 9.1"
     class="H"
     id="path194" />
  <g
     class="G"
     id="g200">
    <path
       d="M720.1 293.915l-9.105-9.102 3.77-3.772 9.104 9.102-3.77 3.772M694.24 7.25c-16.18 0-29.343 13.164-29.343 29.342 0 12.8 19.46 45.823 29.343 61.253 9.883-15.433 29.34-48.458 29.34-61.253 0-16.18-13.16-29.342-29.34-29.342zm0 100.33l-2.225-3.37c-1.324-2.007-32.45-49.343-32.45-67.618 0-19.12 15.556-34.676 34.676-34.676s34.673 15.556 34.673 34.676c0 18.275-31.123 65.6-32.448 67.618l-2.225 3.37"
       id="path196" />
    <path
       d="M699.82 23.7l-5.213-1.127 1.247-5.763 5.212 1.128-1.245 5.762m-13.156.8l-1.803-5.612 5.077-1.632 1.803 5.612-5.077 1.632m-5.917 5.656l-4.364-3.958 3.583-3.95 4.365 3.958-3.584 3.95M678.45 38l-5.76-1.244 1.127-5.213 5.76 1.246L678.45 38m-3.683 9.747l-1.63-5.08 5.612-1.8 1.63 5.08-5.612 1.8m7.297 8.478l-3.95-3.584 3.963-4.364 3.948 3.584-3.96 4.364m10.557 3.697l-5.213-1.13 1.248-5.76 5.213 1.13-1.248 5.762m5.915-.454l-1.8-5.612 5.077-1.63 1.8 5.612-5.077 1.63m9.963-4.977l-4.364-3.957 3.583-3.952 4.364 3.958-3.583 3.95m6.16-9.295l-5.76-1.245 1.127-5.213 5.76 1.247-1.127 5.212m-4.932-9.325l-1.63-5.077 5.6-1.8 1.63 5.08-5.6 1.8m-3.326-7.414l-3.95-3.584 3.96-4.364 3.95 3.584-3.96 4.364"
       id="path198" />
  </g>
  <path
     d="M703.707 38.368c0 5.23-4.24 9.47-9.47 9.47a9.47 9.47 0 0 1-9.465-9.471 9.47 9.47 0 0 1 9.465-9.466c5.228 0 9.47 4.24 9.47 9.466"
     class="H"
     id="path202" />
  <path
     d="M450.857 249.053c0 37.233-30.184 67.416-67.415 67.416s-67.415-30.183-67.415-67.416 30.183-67.413 67.415-67.413 67.415 30.183 67.415 67.413"
     class="J"
     id="path204"
     style="fill:#84dbff;fill-opacity:1" />
  <path
     d="M383.443 280.276c-17.216 0-31.22-14.005-31.22-31.22s14.004-31.223 31.22-31.223 31.22 14.008 31.22 31.223-14.004 31.22-31.22 31.22"
     class="H"
     id="path206" />
  <path
     d="M383.443 220.5c-15.744 0-28.553 12.81-28.553 28.556S367.7 277.6 383.443 277.6s28.553-12.8 28.553-28.555-12.808-28.556-28.553-28.556zm0 62.444c-18.685 0-33.887-15.203-33.887-33.888s15.2-33.9 33.887-33.9 33.887 15.203 33.887 33.9-15.2 33.888-33.887 33.888"
     class="G"
     id="path208" />
  <path
     d="M366.127 261.093a20.82 20.82 0 0 1-3.784-12.039c0-11.633 9.468-21.1 21.1-21.1s21.1 9.465 21.1 21.1c0 4.38-1.323 8.532-3.783 12.04-1.66-4.172-5.733-7.13-10.485-7.13h-13.66c-4.755 0-8.832 2.958-10.488 7.13"
     class="J"
     id="path210"
     style="fill:#84dbff;fill-opacity:1" />
  <g
     class="G"
     id="g228">
    <path
       d="M383.443 239.583a6.45 6.45 0 0 0-6.437 6.44c0 3.548 2.888 6.436 6.437 6.436a6.45 6.45 0 0 0 6.443-6.436 6.45 6.45 0 0 0-6.443-6.44zm0 18.21c-6.49 0-11.77-5.28-11.77-11.77a11.79 11.79 0 0 1 11.771-11.773c6.493 0 11.776 5.282 11.776 11.773a11.79 11.79 0 0 1-11.776 11.77"
       id="path212" />
    <path
       d="M402.047 275.75h-5.333v-10.506a6.45 6.45 0 0 0-6.439-6.439h-13.66a6.45 6.45 0 0 0-6.44 6.439v10.506h-5.333v-10.506a11.79 11.79 0 0 1 11.773-11.772h13.66a11.79 11.79 0 0 1 11.772 11.772v10.506M258.98 88.896c-13.167 0-23.88 10.712-23.88 23.88s10.712 23.875 23.88 23.875 23.88-10.7 23.88-23.875-10.712-23.88-23.88-23.88zm0 53.088c-16.108 0-29.212-13.103-29.212-29.208s13.104-29.213 29.212-29.213 29.212 13.105 29.212 29.213-13.104 29.208-29.212 29.208"
       id="path214" />
    <path
       d="M258.976 102.115c-4.04 0-7.324 3.288-7.324 7.328s3.285 7.33 7.324 7.33a7.34 7.34 0 0 0 7.332-7.33 7.34 7.34 0 0 0-7.332-7.328zm0 19.99a12.68 12.68 0 0 1-12.657-12.663c0-6.98 5.68-12.66 12.657-12.66a12.68 12.68 0 0 1 12.665 12.661c0 6.98-5.68 12.663-12.665 12.663"
       id="path216" />
    <path
       d="M244.164 130.176c4.145 3.54 9.36 5.475 14.812 5.475s10.672-1.936 14.82-5.476a7.34 7.34 0 0 0-7.321-6.958H251.48a7.34 7.34 0 0 0-7.317 6.958zm14.812 10.808c-7.193 0-14.053-2.73-19.316-7.687l-.84-.8v-1.967c0-6.98 5.68-12.657 12.66-12.657h14.992c6.983 0 12.664 5.677 12.664 12.657v1.968l-.84.8a28.1 28.1 0 0 1-19.323 7.686m218.6-99.85c-13.168 0-23.88 10.712-23.88 23.878s10.713 23.877 23.88 23.877 23.877-10.7 23.877-23.877-10.7-23.878-23.877-23.878zm0 53.1c-16.108 0-29.215-13.104-29.215-29.2s13.107-29.212 29.215-29.212 29.2 13.104 29.2 29.212-13.104 29.2-29.2 29.2m-.005-39.9c-4.04 0-7.324 3.286-7.324 7.326a7.34 7.34 0 0 0 7.324 7.33 7.34 7.34 0 0 0 7.332-7.329 7.34 7.34 0 0 0-7.332-7.326zm0 19.988c-6.98 0-12.657-5.68-12.657-12.663s5.68-12.66 12.657-12.66a12.68 12.68 0 0 1 12.665 12.659 12.68 12.68 0 0 1-12.665 12.663"
       id="path218" />
    <path
       d="M462.756 82.403a22.73 22.73 0 0 0 14.812 5.475 22.76 22.76 0 0 0 14.82-5.476 7.34 7.34 0 0 0-7.321-6.958h-15a7.34 7.34 0 0 0-7.32 6.958zm14.812 10.808c-7.196 0-14.057-2.73-19.317-7.687l-.837-.8v-1.96a12.68 12.68 0 0 1 12.663-12.662h15a12.68 12.68 0 0 1 12.664 12.662v1.962l-.84.8c-5.263 4.958-12.125 7.687-19.323 7.687m-6.676 7.357l-4.66-2.594 2.595-4.66 4.66 2.595zm-5.2 9.32l-4.66-2.595 2.595-4.66 4.66 2.595zm-5.2 9.32l-4.66-2.595 2.595-4.66 4.66 2.595zm-5.2 9.32l-4.66-2.595 2.595-4.66 4.66 2.595zm-5.188 9.32l-4.66-2.595 2.595-4.66 4.66 2.595zm-5.2 9.32l-4.66-2.595 2.595-4.66 4.66 2.595zm-5.2 9.32l-4.66-2.595 2.595-4.66 4.66 2.595zm-5.2 9.32l-4.66-2.595 2.595-4.66 4.66 2.595zm-5.2 9.32l-4.66-2.595 2.595-4.66 4.66 2.595zm-5.2 9.32l-4.66-2.595 2.595-4.66 4.66 2.595zm-5.2 9.32l-4.66-2.595 2.595-4.66 4.66 2.595zm-5.2 9.32l-4.66-2.595 2.595-4.66 4.66 2.595zm-5.2 9.32l-4.66-2.595 2.595-4.66 4.66 2.595zm-5.188 9.32l-4.66-2.595 2.595-4.66 4.66 2.595-2.593 4.66m211.1-14.295H599.7V202.1h9.392v-8.613c0-4.25-3.456-7.707-7.705-7.707v-5.333a13.06 13.06 0 0 1 13.04 13.04v13.947M581.972 324.16h-5.53c-17.103-.003-69.15-.013-73.068.001l-.02-5.333h78.303c3.827-.512 6.695-3.768 6.695-7.63l-.08-4.4h.08v-113.3c0-2.832.907-5.472 2.46-7.624-16.704.005-50.545-.002-63.704-.006H521.9c-3.808.5-6.66 3.767-6.66 7.63v19.7h-5.333v-19.7c0-6.62 4.953-12.188 11.524-12.947l.305-.017h78.44l.316 5.314c-3.88.45-6.808 3.737-6.808 7.65l-.036 118.64a13.05 13.05 0 0 1-11.521 12.013l-.153.018"
       id="path220" />
    <path
       d="M496.083 308.65v2.544c0 3.864 2.855 7.12 6.664 7.63l68.912-.007a13 13 0 0 1-2.459-7.624v-2.544zm6.5 15.508l-.307-.018a13.03 13.03 0 0 1-11.527-12.947v-7.877h83.784v7.877c0 3.912 2.927 7.2 6.807 7.648l-.317 5.316-21.75-.008-56.7.008M614.427 206.28h-5.333v-12.793c0-4.25-3.456-7.707-7.705-7.707a7.72 7.72 0 0 0-7.705 7.707h-5.333c0-7.2 5.85-13.04 13.04-13.04a13.06 13.06 0 0 1 13.04 13.04v12.793"
       id="path222" />
    <path
       d="M581.632 324.16c-6.507 0-12.432-6.18-12.432-12.964V302.8h5.333v8.393c0 3.923 3.45 7.63 7.1 7.63v5.333m-9.098-25.856l-9.972-6.885-9.973 6.885v-20.83h5.333v10.666l4.64-3.203 4.64 3.203V277.47h5.333v20.83"
       id="path224" />
    <path
       d="M562.564 263.105c-4.103 0-7.44 3.335-7.44 7.434a7.45 7.45 0 0 0 7.44 7.438 7.45 7.45 0 0 0 7.436-7.438c0-4.1-3.336-7.434-7.436-7.434zm0 20.206a12.79 12.79 0 0 1-12.773-12.772 12.79 12.79 0 0 1 12.773-12.767c7.04 0 12.77 5.728 12.77 12.767a12.79 12.79 0 0 1-12.77 12.772m2.666-9.564h-5.333v-5.8h5.333v5.8m-11.067-61.174h-33.508v-5.333h33.508v5.333m22.262 15.283h-78.033v-5.333h78.033v5.333m0 15.037h-78.033v-5.333h78.033v5.333m-34.9 15.042h-43.132V252.6h43.132v5.333m-17.13 23.727H498.39v-5.333h26.004v5.333"
       id="path226" />
  </g>
  <path
     d="M300.628 419.634c33.33 0 60.34-27.005 60.34-60.337 0-14.896-5.41-28.496-14.357-39.024l14.06-26.667-25.58 16.212c-9.767-6.83-21.632-10.867-34.465-10.867-33.317 0-60.33 27.023-60.33 60.346 0 33.332 27.013 60.337 60.33 60.337"
     class="I"
     id="path230"
     style="fill:#f0f7ff;fill-opacity:1" />
  <g
     class="G"
     id="g236">
    <path
       d="M308.94 386.847h-5.333v-33.093h-22.135v-5.333h27.468v38.427"
       id="path232" />
    <path
       d="M316.66 389.513H289.2v-38.427h5.333v33.093h22.136v5.333m-17.592-64.888c-3.14 0-5.697 2.556-5.697 5.7s2.556 5.696 5.697 5.696 5.697-2.555 5.697-5.696a5.71 5.71 0 0 0-5.697-5.7zm0 16.728c-6.083 0-11.03-4.947-11.03-11.03s4.948-11.032 11.03-11.032 11.03 4.95 11.03 11.032-4.948 11.03-11.03 11.03"
       id="path234" />
  </g>
  <path
     d="M255.644 215.9c-3.253-5.17-9.76-4.785-11.293-4.785h-24.497v22.776h23.54c4.592 0 9.76-.384 12.44-4.976 1.53-2.298 1.53-5.168 1.53-6.316 0-3.445-.956-5.55-1.72-6.7zm3.445 52.436c-3.83-6.314-11.868-6.124-13.59-6.124h-25.836v26.412h26.795c4.784 0 9.187-.958 12.25-5.36 2.103-3.064 2.295-6.125 2.295-7.657s-.192-4.4-1.912-7.272zm34.828 38.854c-3.635 3.635-7.653 5.356-9.376 6.12-8.424 3.83-15.885 4.4-24.688 4.4h-82.677V182.597h79.996c3.83 0 7.657.192 11.484.767 8.04 1.15 17.608 4.593 23.348 10.525 1.15 1.34 3.445 4.02 5.36 8.04 2.297 4.593 3.445 9.76 3.445 14.927 0 4.403-1.34 17.224-12.248 25.836-2.105 1.532-4.21 2.87-8.996 4.976l5.74 1.723c4.212 1.34 7.465 3.637 10.72 6.89 8.228 8.612 8.42 18.372 8.42 22.775s-.573 18.563-10.527 28.135"
     class="J"
     id="path238"
     style="fill:#84dbff;fill-opacity:1" />
  <g
     class="G"
     id="g256"
     style="fill:#282d33">
    <path
       d="m 257.172,185.264 h -79.996 v -5.333 h 79.996 v 5.333 M 72.824,312.975 H 174.756 V 246.52 H 72.824 Z m 107.265,5.333 H 67.5 v -77.12 h 112.6 v 77.12"
       id="path240"
       inkscape:connector-curvature="0" />
    <path
       d="m 140.392,236.1 h -5.333 v -3.22 h -22.54 v 3.22 h -5.333 v -8.554 h 33.205 V 236.1 M 69.9,290.4 H 67.5 L 44.977,279.05 67.5,267.707 h 2.412 v 5.333 H 68.77 l -11.94,6.02 11.94,6.017 h 1.144 v 5.333"
       id="path242"
       inkscape:connector-curvature="0" />
    <path
       d="m 67.507,267.732 10e-4,22.65 h 112.717 v -22.65 z m 5.333,5.333 102.052,10e-4 v 11.983 H 72.84 v -11.983"
       id="path244"
       inkscape:connector-curvature="0" />
    <path
       d="m 72.295,281.724 v -5.333 H 178.58 v 5.333 l -106.285,0.001 m 114.268,8.77 h -7.065 v -5.333 h 5.975 l -0.001,-12.2 -5.972,0.001 v -5.343 h 7.065 a 4.06,4.06 0 0 1 2.881,1.214 c 0.864,0.867 1.36,2.102 1.357,3.4 l 0.003,13.68 c -0.003,2.534 -1.905,4.592 -4.243,4.592 m 697.933,1 c -15.183,0 -27.536,-12.352 -27.536,-27.536 0,-15.184 12.353,-27.538 27.536,-27.538 8.28,0 16.044,3.68 21.304,10.1 l -4.124,3.383 c -4.243,-5.173 -10.504,-8.14 -17.18,-8.14 -12.243,0 -22.203,9.96 -22.203,22.204 0,12.244 9.96,22.203 22.203,22.203 a 21.99,21.99 0 0 0 13.38,-4.487 l 3.217,4.255 c -4.816,3.64 -10.555,5.565 -16.6,5.565 m 2.847,-36.96 c -2.796,0 -6.68,0.52 -9.3,2.988 -3.66,3.44 -4.26,7.596 -3.596,10.336 0.516,2.136 1.82,3.65 3.583,4.158 0.715,0.205 1.383,0.3 1.987,0.3 2.64,0 3.94,-2.153 4.568,-3.958 0.53,-1.516 2.944,-9.374 4.295,-13.784 a 23.56,23.56 0 0 0 -1.527,-0.049 z m -7.336,23.125 h -10e-4 c -1.1,0 -2.265,-0.175 -3.46,-0.518 -3.6,-1.037 -6.328,-4.04 -7.292,-8.03 -1.295,-5.357 0.67,-11.288 5.128,-15.476 3.1,-2.9 7.57,-4.435 12.96,-4.435 3.136,0 5.5,0.528 5.6,0.55 l 2.795,0.637 -0.836,2.74 -5.28,16.992 c -1.64,4.72 -5.232,7.54 -9.605,7.54"
       id="path246"
       inkscape:connector-curvature="0" />
    <path
       d="m 894.97,277.424 c -2.437,0 -4.693,-0.84 -6.5,-2.475 -3.7,-3.367 -1.228,-14.483 0.576,-20.808 l 5.13,1.46 c -1.92,6.747 -2.86,13.915 -2.04,15.47 1.592,1.383 3.565,1.113 4.95,0.637 3.377,-1.16 7.263,-5.05 8.16,-10.24 0.652,-3.775 -0.075,-9.47 -7.23,-15.176 l 3.324,-4.17 c 9.68,7.717 9.896,16.002 9.163,20.253 -1.12,6.485 -5.923,12.397 -11.68,14.376 -1.3,0.45 -2.608,0.672 -3.86,0.672 m -286.68,105.07 h 37.596 v -20.9 h -37.596 z m 42.93,5.333 H 602.96 v -31.568 h 48.263 v 31.568"
       id="path248"
       inkscape:connector-curvature="0" />
    <path
       d="m 627.093,379.656 -22.193,-18.948 3.464,-4.056 18.73,15.99 18.724,-15.99 3.463,4.056 -22.187,18.948"
       id="path250"
       inkscape:connector-curvature="0" />
    <path
       d="m 608.365,386.422 -3.464,-4.055 14.8,-12.632 3.464,4.055 -14.8,12.632 m 37.455,0 -14.935,-12.75 3.463,-4.056 14.935,12.75 -3.463,4.056 m -92.168,-289.1 c 5.928,5.928 13.43,9.357 20.655,9.465 a 17.99,17.99 0 0 0 1.015,-0.936 18.76,18.76 0 0 0 4.11,-6.18 c -2.723,-1.187 -5.056,-1.9 -8.747,-2.736 h -0.007 l -1.755,2.767 c -0.8,1.283 -2.28,2.068 -3.968,2.068 -1.297,0 -2.636,-0.458 -3.768,-1.3 a 51.94,51.94 0 0 1 -5.8,-4.94 53.13,53.13 0 0 1 -4.993,-5.844 c -1.064,-1.457 -1.495,-3.2 -1.184,-4.787 0.25,-1.272 0.96,-2.327 2,-2.97 l 2.735,-1.737 c -0.805,-2.993 -1.875,-6.136 -2.797,-8.726 a 18.81,18.81 0 0 0 -6.124,4.09 18.87,18.87 0 0 0 -0.929,1.012 c 0.113,7.106 3.572,14.723 9.375,20.563 l 0.22,0.215 z m 21,14.8 c -8.738,0 -17.76,-4.012 -24.758,-11.008 l -0.136,-0.134 c -7.207,-7.212 -11.215,-16.48 -11,-25.424 l 0.02,-0.9 0.55,-0.697 a 25.05,25.05 0 0 1 1.909,-2.169 c 2.412,-2.4 5.236,-4.246 8.4,-5.467 0.455,-0.18 0.97,-0.27 1.524,-0.27 1.427,0 3.95,0.72 4.652,2.648 1.053,2.924 2.383,6.74 3.35,10.395 0.323,1.237 0.005,4.103 -1.745,5.203 l -2.93,1.86 a 1.49,1.49 0 0 0 0.205,0.38 47.2,47.2 0 0 0 4.459,5.218 46.04,46.04 0 0 0 5.173,4.406 c 0.14,0.104 0.27,0.17 0.38,0.2 l 1.865,-2.942 c 1.13,-1.756 3.68,-1.844 4.18,-1.844 a 4.02,4.02 0 0 1 0.935,0.1 c 3.9,0.865 6.768,1.672 10.664,3.44 2.004,0.9 2.933,4.2 2.183,6.115 -1.22,3.153 -3.056,5.976 -5.452,8.373 a 23.54,23.54 0 0 1 -2.19,1.928 l -0.695,0.54 -0.88,0.02 -0.664,0.008 m 14.27,-43.726 -3.772,-3.77 6,-5.997 3.77,3.77 -5.997,5.998"
       id="path252"
       inkscape:connector-curvature="0" />
    <path
       d="m 576.693,58.745 -4.835,-2.253 3.584,-7.688 4.833,2.253 -3.583,7.688 m 20.433,22.907 -2.253,-4.834 7.7,-3.583 2.253,4.833 -7.7,3.584 m -8.197,-13.254 -3.772,-3.77 6,-6 3.77,3.77 -6,6"
       id="path254"
       inkscape:connector-curvature="0" />
  </g>
  <g
     class="H"
     id="g262">
    <path
       d="M443.62 359.09h-52.213c-3.643 0-6.595 2.954-6.595 6.596v2.748c0 3.644 2.952 6.596 6.595 6.596h52.213v-15.94"
       id="path258" />
    <path
       d="M497.483 361.013H433.45c-3.64 0-6.593 2.243-6.593 5.005v2.086c0 2.762 2.953 5 6.593 5h64.032v-12.092"
       id="path260" />
  </g>
  <g
     class="G"
     id="g274">
    <path
       d="M434.825 385.362H403.72c-5.107 0-9.26-4.155-9.26-9.263v-17h5.333v17c0 2.167 1.76 3.93 3.928 3.93h31.107v5.333m11.732-10.333h-5.333v-16.214h5.333v16.214m53.484 0h-5.333v-16.214h5.333v16.214"
       id="path264" />
    <path
       d="M509.12 374.484l-2.04-.085h-8.18v-5.333h6.64c2.73-3.358 9.496-4.842 13.02-4.842v5.333c-3.717 0-8.344 1.848-8.923 2.92l-.512 2.008"
       id="path266" />
    <path
       d="M518.555 369.556c-3.523 0-10.29-1.484-13.02-4.844H498.9v-5.333h10.252l.512 2.008c.548.988 5.175 2.836 8.892 2.836v5.333"
       id="path268" />
    <use
       xlink:href="#F"
       id="use270" />
    <use
       xlink:href="#F"
       y="9.66"
       id="use272" />
  </g>
  <path
     d="M213.197 211.305l-6.703 8.4-4.41-2.845z"
     class="H"
     id="path276" />
  <g
     class="G"
     id="g284">
    <path
       d="M207.075 223.255l-6.435-4.153 2.892-4.48 2.383 1.538 5.2-6.516 4.17 3.325-8.208 10.287"
       id="path278" />
    <use
       xlink:href="#F"
       y="52"
       id="use280" />
    <use
       xlink:href="#F"
       y="61.66"
       id="use282" />
  </g>
  <path
     d="M213.197 263.305l-6.703 8.4-4.41-2.845z"
     class="H"
     id="path286" />
  <g
     class="G"
     id="g294">
    <path
       d="M207.075 275.255l-6.435-4.153 2.892-4.48 2.383 1.538 5.2-6.516 4.17 3.325-8.208 10.287m615.127-125.033l-2.853 5.705 25.293-.002 2.85-5.7zm-11.484 11.04l8.188-16.372 37.212.003-8.18 16.365-37.22.004"
       id="path288" />
    <path
       d="M822.204 144.89l25.288.003-2.85-5.7h-25.29zm33.917 5.336l-37.213-.002-8.187-16.363h37.22l8.18 16.365"
       id="path290" />
    <path
       d="M921.756 150.14l-105.848-.003c-1.473 0-2.667-1.194-2.667-2.667s1.193-2.667 2.667-2.667l105.848.002c1.472 0 2.667 1.193 2.667 2.667a2.67 2.67 0 0 1-2.667 2.667"
       id="path292" />
  </g>
  <defs
     id="defs301">
    <path
       id="B"
       d="M649.415 249.125h-5.953v-5.333h5.953v5.333" />
    <path
       id="C"
       d="M673.207 249.125h-5.957v-5.333h5.957v5.333" />
    <path
       id="D"
       d="M779.786 199.18H747.65v-5.333h32.137v5.333" />
    <path
       id="E"
       d="M818.457 294.7l-3.77-3.772 9.103-9.1 3.77 3.772-9.103 9.1" />
    <path
       id="F"
       d="M263.17 214.303h-43.315v-5.333h43.315v5.333" />
  </defs>
</svg>
